<mxfile host="app.diagrams.net" modified="2024-03-11T13:28:13.396Z" agent="Mozilla/5.0 (Windows NT 10.0; Win64; x64) AppleWebKit/537.36 (KHTML, like Gecko) Chrome/122.0.0.0 Safari/537.36 Edg/122.0.0.0" version="21.3.0" etag="igeAl0M1sXRJkuD_17d2" type="github">
  <diagram name="Strona-1" id="H-UU0j_Ac5iuzrKY_cl1">
    <mxGraphModel>
      <root>
        <mxCell id="0" />
        <mxCell id="1" parent="0" />
      </root>
    </mxGraphModel>
  </diagram>
</mxfile>
